<svg width="163" height="57" viewBox="0 0 163 57" fill="none" xmlns="http://www.w3.org/2000/svg">
<path d="M28.304 34.976L50.576 9.12L72.976 35.04V7.2H84.176V52H71.696L50.64 25.44L29.584 52H17.04V7.2H28.304V34.976Z" fill="#0149F2"/>
<path d="M90.96 25.772V15.8H121.308V21.236H97.296V25.772H117.96L121.308 28.22L117.96 30.668H97.296V35.564H122.244V41H90.96V30.668L87.648 28.22L90.96 25.772ZM153.157 33.26C153.157 32.684 153.049 32.228 152.833 31.892C152.617 31.556 152.353 31.304 152.041 31.136C151.753 30.968 151.453 30.86 151.141 30.812C150.829 30.764 150.577 30.74 150.385 30.74H133.753V35.744H150.385C150.529 35.744 150.745 35.72 151.033 35.672C151.345 35.624 151.657 35.516 151.969 35.348C152.281 35.18 152.557 34.928 152.797 34.592C153.037 34.256 153.157 33.812 153.157 33.26ZM153.157 23.54C153.157 22.964 153.049 22.508 152.833 22.172C152.617 21.836 152.353 21.596 152.041 21.452C151.753 21.284 151.453 21.176 151.141 21.128C150.829 21.08 150.577 21.056 150.385 21.056H133.753V26.06H150.385C150.529 26.06 150.745 26.036 151.033 25.988C151.345 25.94 151.657 25.832 151.969 25.664C152.281 25.472 152.557 25.208 152.797 24.872C153.037 24.536 153.157 24.092 153.157 23.54ZM159.241 34.016C159.241 35.264 159.025 36.332 158.593 37.22C158.161 38.084 157.573 38.804 156.829 39.38C156.109 39.932 155.245 40.34 154.237 40.604C153.253 40.868 152.185 41 151.033 41H127.417V15.8H151.033C152.233 15.8 153.337 15.944 154.345 16.232C155.353 16.496 156.217 16.916 156.937 17.492C157.657 18.068 158.221 18.812 158.629 19.724C159.037 20.612 159.241 21.692 159.241 22.964C159.217 23.732 159.073 24.464 158.809 25.16C158.593 25.76 158.245 26.36 157.765 26.96C157.285 27.56 156.589 28.052 155.677 28.436C156.589 28.868 157.285 29.408 157.765 30.056C158.245 30.68 158.593 31.292 158.809 31.892C159.073 32.588 159.217 33.296 159.241 34.016Z" fill="#0149F2"/>
</svg>
